# xmcd CD database file
#
# Track frame offsets:
#	150
#	14162
#	28732
#	41255
#	55180
#	67607
#	79877
#	92832
#	108929
#	122587
#	135425
#	146595
#	157380
#	167137
#	179982
#	189725
#	201372
#	210937
#	222580
#	234720
#	245870
#	261587
#	272742
#	282820
#	296390
#	308762
#	321686
#	334566
#
# Disc length: 4627 seconds
#
# Revision: 0
# Processed by: cddbd v1.5.2PL0 Copyright (c) Steve Scherf et al.
# Submitted via: CDex 1.51
#
DISCID=bb12111c
DTITLE=Buddy Morrow - The Essential Collection - disc 2
DYEAR=2011
DGENRE=Jazz
TTITLE0=Night Train
TTITLE1=Fine and Mellow
TTITLE2=Corrine Corrina
TTITLE3=Quarter To Twelve
TTITLE4=Re-Enlistment Blues
TTITLE5=Hey Mrs Jones
TTITLE6=Greyhound
TTITLE7=Some Of These Days
TTITLE8=One Mint Julep
TTITLE9=Got You On My Mind
TTITLE10=The Boogie Woogie March
TTITLE11=All Night Long
TTITLE12=Scraunchy
TTITLE13=I Cried For You
TTITLE14=Isle Of Capri
TTITLE15=The 3rd Man Theme
TTITLE16=I'll Get By
TTITLE17=Tequila
TTITLE18=Don't Fret
TTITLE19=Deep Purple
TTITLE20=Ambrosia
TTITLE21=The Very thought Of You
TTITLE22=Hong Kong Blues
TTITLE23=Camp Meetin'
TTITLE24=We'll Be Together Again
TTITLE25=I Found A Million Dollar Baby
TTITLE26=That Old Feeling
TTITLE27=Too Marvelous For Words
EXTD=YEAR: 2011
EXTT0=
EXTT1=
EXTT2=
EXTT3=
EXTT4=
EXTT5=
EXTT6=
EXTT7=
EXTT8=
EXTT9=
EXTT10=
EXTT11=
EXTT12=
EXTT13=
EXTT14=
EXTT15=
EXTT16=
EXTT17=
EXTT18=
EXTT19=
EXTT20=
EXTT21=
EXTT22=
EXTT23=
EXTT24=
EXTT25=
EXTT26=
EXTT27=
PLAYORDER=
